<?xml version="1.0" encoding="UTF-8" standalone="no"?>
<!-- Created with Inkscape (http://www.inkscape.org/) -->

<svg
   xmlns:dc="http://purl.org/dc/elements/1.1/"
   xmlns:cc="http://creativecommons.org/ns#"
   xmlns:rdf="http://www.w3.org/1999/02/22-rdf-syntax-ns#"
   xmlns:svg="http://www.w3.org/2000/svg"
   xmlns="http://www.w3.org/2000/svg"
   xmlns:sodipodi="http://sodipodi.sourceforge.net/DTD/sodipodi-0.dtd"
   xmlns:inkscape="http://www.inkscape.org/namespaces/inkscape"
   width="70mm"
   height="70mm"
   viewBox="0 0 70 70"
   version="1.1"
   id="svg8"
   inkscape:version="0.92.3 (2405546, 2018-03-11)"
   sodipodi:docname="Conjunto.svg"
   inkscape:export-filename="C:\Users\Administrador\Desktop\IconosPictogramas\Conjunto.png"
   inkscape:export-xdpi="181.42857"
   inkscape:export-ydpi="181.42857">
  <defs
     id="defs2" />
  <sodipodi:namedview
     id="base"
     pagecolor="#ffffff"
     bordercolor="#666666"
     borderopacity="1.0"
     inkscape:pageopacity="0.0"
     inkscape:pageshadow="2"
     inkscape:zoom="2.8"
     inkscape:cx="146.34472"
     inkscape:cy="119.5939"
     inkscape:document-units="mm"
     inkscape:current-layer="layer1"
     showgrid="false"
     inkscape:window-width="1920"
     inkscape:window-height="1017"
     inkscape:window-x="-8"
     inkscape:window-y="-8"
     inkscape:window-maximized="1" />
  <metadata
     id="metadata5">
    <rdf:RDF>
      <cc:Work
         rdf:about="">
        <dc:format>image/svg+xml</dc:format>
        <dc:type
           rdf:resource="http://purl.org/dc/dcmitype/StillImage" />
        <dc:title></dc:title>
      </cc:Work>
    </rdf:RDF>
  </metadata>
  <g
     inkscape:label="Capa 1"
     inkscape:groupmode="layer"
     id="layer1"
     transform="translate(0,-227)">
    <g
       transform="matrix(0.28805413,0,0,0.28805413,3.7673043,168.3108)"
       id="layer1-7"
       inkscape:label="Capa 1">
      <g
         inkscape:export-ydpi="17.289787"
         inkscape:export-xdpi="17.289787"
         transform="matrix(0.48185036,0,0,0.48185036,-18.272315,186.1014)"
         id="g108">
        <path
           style="fill:#000000;stroke:#000000;stroke-width:0.26458332px;stroke-linecap:butt;stroke-linejoin:miter;stroke-opacity:1"
           d="m 58.264758,114.05401 18.708864,-0.13364 4.14268,10.15624 h 78.176338 l -19.77795,44.09947 -44.09947,0.4009 -4.944486,10.69078 57.863856,-0.13363 0.26727,9.48808 -73.766394,-0.13364 9.755338,-24.18789 -15.367997,-39.9568 -10.824414,0.13363 z"
           id="path85"
           inkscape:connector-curvature="0"
           sodipodi:nodetypes="cccccccccccccc" />
        <circle
           style="fill:#000000;stroke:#000000;stroke-width:0.26458332"
           id="path95"
           cx="89.134392"
           cy="203.9902"
           r="10.289877" />
        <circle
           r="10.289877"
           cy="203.85657"
           cx="139.24742"
           id="circle97"
           style="fill:#000000;stroke:#000000;stroke-width:0.26458332" />
        <rect
           style="fill:#000000;stroke:#000000;stroke-width:0.26458332"
           id="rect99"
           width="21.190109"
           height="13.096207"
           x="102.23059"
           y="109.10951" />
        <rect
           style="fill:#000000;stroke:#000000;stroke-width:0.26458332"
           id="rect101"
           width="14.432554"
           height="23.352364"
           x="84.991707"
           y="99.086906" />
      </g>
    </g>
    <path
       inkscape:export-ydpi="96"
       inkscape:export-xdpi="96"
       sodipodi:nodetypes="cccccccccc"
       inkscape:connector-curvature="0"
       id="path3795"
       d="m 44.740507,237.04963 c -1.124362,0.66573 -1.070874,1.66217 -1.251991,2.78853 l 0.08537,10.89807 h 1.707261 l -0.05695,-6.00389 c 1.809025,-0.33166 4.41802,3.88409 7.170531,5.91852 5.693161,-0.098 7.269289,0.13859 10.755784,-0.19917 -1.220481,-1.97986 -3.688202,-3.39914 -5.719344,-4.09745 -0.997319,0.84543 -1.49522,3.5522 -4.609634,0.057 -2.59526,-3.24198 -7.40576,-9.54434 -8.08107,-9.36153 z"
       style="fill:#000000;stroke:#000000;stroke-width:0.40215665px;stroke-linecap:butt;stroke-linejoin:miter;stroke-opacity:1" />
    <g
       transform="matrix(0.22929873,0,0,0.22929873,58.120283,264.7237)"
       id="g64">
      <g
         id="g26"
         transform="matrix(0.95894759,0,0,0.95894759,-53.885446,8.1793159)"
         style="fill:#000000">
        <path
           sodipodi:nodetypes="cccc"
           inkscape:connector-curvature="0"
           id="path20"
           d="m 20.731132,5.235849 7.641509,7.570755 7.216981,-7.5000003 z"
           style="fill:#000000;stroke:#000000;stroke-width:1px;stroke-linecap:butt;stroke-linejoin:miter;stroke-opacity:1" />
        <path
           sodipodi:nodetypes="ccccc"
           inkscape:connector-curvature="0"
           id="path22"
           d="m 28.372641,12.806604 -7.570754,34.174528 7.712263,7.429245 7.287737,-7.5 C 33.113208,35.636792 31.524122,24.31159 28.372641,12.806604"
           style="fill:#000000;stroke:#000000;stroke-width:1px;stroke-linecap:butt;stroke-linejoin:miter;stroke-opacity:1" />
      </g>
      <path
         style="fill:#000000;stroke:#000000;stroke-width:1px;stroke-linecap:butt;stroke-linejoin:miter;stroke-opacity:1"
         d="m -40.04717,13.301887 c -3.049871,-0.07367 -6.496665,-0.212916 -10.613207,0.424527 -6.797553,10.424529 -10.14151,21.273585 -14.858491,31.698114 -0.865006,9.706461 -2.846476,19.570866 -4.245283,28.443396 3.781942,4.215472 7.406863,1.682273 9.339623,0.849056 l 5.518868,-23.490565 4.81132,-8.773585 1e-6,32.688679 c 4.787231,5.01255 16.486126,4.886062 24.622641,5.09434 8.554238,-0.611822 19.3142438,-1.002929 22.4999998,-5.943397 l 0.141509,-31.698113 c 1.612952,3.890792 2.96222804,6.105121 4.245286,8.490566 l 5.51886,23.490566 c 3.2650402,2.293693 6.3101902,1.948707 9.1981202,-0.283018 l -3.82075,-28.584906 c 2.05822,3.95343 -8.5941702,-22.126519 -14.5754782,-31.981132 -3.390122,-0.08407 -3.183414,-1.067354 -10.6132078,-0.141509 l -13.443396,30.141508 z"
         id="path49"
         inkscape:connector-curvature="0"
         sodipodi:nodetypes="ccccccccccccccccccc" />
      <circle
         style="fill:#ffffff;stroke:#ffffff"
         id="path51"
         cx="-26.816036"
         cy="45.353775"
         r="1.2028302" />
      <circle
         r="1.2028302"
         cy="56.25"
         cx="-26.816036"
         id="circle53"
         style="fill:#ffffff;stroke:#ffffff" />
      <circle
         style="fill:#ffffff;stroke:#ffffff"
         id="circle55"
         cx="-26.816036"
         cy="66.721695"
         r="1.2028302" />
    </g>
    <g
       transform="matrix(0.33265918,0,0,0.33265918,2.1496877,186.9622)"
       id="layer1-0"
       inkscape:label="Capa 1">
      <g
         transform="matrix(0.39951187,0,0,0.39951187,-6.5963591,203.46665)"
         id="g57">
        <path
           style="fill:#000000;stroke:#000000;stroke-width:0.26458332px;stroke-linecap:butt;stroke-linejoin:miter;stroke-opacity:1"
           d="m 51.461187,115.18794 18.708864,-0.13364 4.14268,10.15624 h 78.176339 l -19.77795,44.09947 -44.099471,0.4009 -4.944486,10.69078 57.863857,-0.13363 0.26727,9.48808 -73.766395,-0.13364 9.755338,-24.18789 -15.367997,-39.9568 -10.824414,0.13363 z"
           id="path85-3"
           inkscape:connector-curvature="0"
           sodipodi:nodetypes="cccccccccccccc" />
        <circle
           style="fill:#000000;stroke:#000000;stroke-width:0.26458332"
           id="path95-3"
           cx="82.330818"
           cy="205.12413"
           r="10.289877" />
        <circle
           r="10.289877"
           cy="204.99049"
           cx="132.44385"
           id="circle97-1"
           style="fill:#000000;stroke:#000000;stroke-width:0.26458332" />
        <path
           style="fill:#000000;stroke:#000000;stroke-width:0.26458332px;stroke-linecap:butt;stroke-linejoin:miter;stroke-opacity:1"
           d="m 113.01488,122.04288 0.0287,-19.50933 c -0.14486,-6.311012 -1.16741,-8.556853 -6.69444,-9.306127 -1.87538,-0.254237 -8.76417,-0.495969 -14.014182,-0.514058 l 0.105957,8.866225 -18.735529,-13.222448 18.387198,-13.96219 0.01621,8.377544 c 9.847546,0.790543 30.079026,-4.846309 30.777386,19.703424 l -0.083,19.57171 z"
           id="path48"
           inkscape:connector-curvature="0"
           sodipodi:nodetypes="ccscccccccc" />
        <rect
           style="fill:#000000;stroke:#000000;stroke-width:0.18900983"
           id="rect50"
           width="9.9370832"
           height="1.3255799"
           x="112.9697"
           y="122.78883" />
      </g>
    </g>
    <text
       xml:space="preserve"
       style="font-style:normal;font-weight:normal;font-size:2.85386729px;line-height:1.25;font-family:sans-serif;letter-spacing:0px;word-spacing:0px;fill:#000000;fill-opacity:1;stroke:none;stroke-width:0.53510016"
       x="7.3840165"
       y="257.38516"
       id="text135"><tspan
         sodipodi:role="line"
         id="tspan133"
         x="7.3840165"
         y="257.38516"
         style="stroke-width:0.53510016">COMPRA</tspan></text>
    <text
       xml:space="preserve"
       style="font-style:normal;font-weight:normal;font-size:2.88970041px;line-height:1.25;font-family:sans-serif;letter-spacing:0px;word-spacing:0px;fill:#000000;fill-opacity:1;stroke:none;stroke-width:0.5418188"
       x="47.730579"
       y="257.00659"
       id="text139"><tspan
         sodipodi:role="line"
         id="tspan137"
         x="47.730579"
         y="257.00659"
         style="stroke-width:0.5418188">MODA</tspan></text>
    <text
       xml:space="preserve"
       style="font-style:normal;font-weight:normal;font-size:2.85127497px;line-height:1.25;font-family:sans-serif;letter-spacing:0px;word-spacing:0px;fill:#000000;fill-opacity:1;stroke:none;stroke-width:0.53461403"
       x="4.4895678"
       y="289.79666"
       id="text143"><tspan
         sodipodi:role="line"
         id="tspan141"
         x="4.4895678"
         y="289.79666"
         style="stroke-width:0.53461403">DEVOLUCIÓN</tspan></text>
    <text
       xml:space="preserve"
       style="font-style:normal;font-weight:normal;font-size:3.00965381px;line-height:1.25;font-family:sans-serif;letter-spacing:0px;word-spacing:0px;fill:#000000;fill-opacity:1;stroke:none;stroke-width:0.56431001"
       x="43.044121"
       y="289.70129"
       id="text147"><tspan
         sodipodi:role="line"
         id="tspan145"
         x="43.044121"
         y="289.70129"
         style="stroke-width:0.56431001">ELEGANCIA</tspan></text>
  </g>
</svg>
